# xmcd
#
# Track frame offsets: 
#        150
#        13906
#        27939
#        44923
#        60303
#        73222
#        88283
#        104519
#        119965
#        134071
#        148751
#        163988
#        173528
#        188468
#        203029
#        223638
#
# Disc length: 3186 seconds
#
# Revision: 1
# Processed by: cddbd v1.5.2PL0 Copyright (c) Steve Scherf et al.
# Submitted via: ExactAudioCopyFreeDBPlugin 1.0
#
DISCID=010c7010
DTITLE=Various Artist - Tupla Finnhits 9 and 10
DYEAR=2004
DGENRE=Suomi Pop
TTITLE0=Marion - Senorita por favor
TTITLE1=Lea Laven - Aamulla rakkaani näin
TTITLE2=Markku Aro - Rakkautta vain
TTITLE3=Mika ja Turkka Mali - Runkomäen iltamat
TTITLE4=Eino Valtanen - Justiinsa juu
TTITLE5=Francis Goya - Tyttöni mun
TTITLE6=Maarit - Jäätelökesä
TTITLE7=Anneli Sari, Feija ja Taisto - Luonnonlapset
TTITLE8=Kontra - Jerry Cotton
TTITLE9=Pepe Willberg - Rasvis mä oon
TTITLE10=Kake Singers - Me halutaan olla neekereitä
TTITLE11=Merja Rantamäki - Sinne
TTITLE12=Jamppa Tuominen - Yritetään yhdesää vielä
TTITLE13=Taiska - On uusi päivä huominen
TTITLE14=Tapani Kansa - Tulkaa tytöt takaisin
TTITLE15=Mikko Alatalo - Vicky Lee
EXTD=Finnish Schlager
EXTT0=
EXTT1=
EXTT2=
EXTT3=
EXTT4=
EXTT5=
EXTT6=
EXTT7=
EXTT8=
EXTT9=
EXTT10=
EXTT11=
EXTT12=
EXTT13=
EXTT14=
EXTT15=
PLAYORDER=
